<svg width="55" height="56" viewBox="0 0 95 96" fill="none" xmlns="http://www.w3.org/2000/svg">
<mask id="mask0_211_692" style="mask-type:luminance" maskUnits="userSpaceOnUse" x="0" y="0" width="95" height="96">
<path d="M95 0H0V95.0012H95V0Z" fill="white"/>
</mask>
<g mask="url(#mask0_211_692)">
<path d="M94.8967 50.469C94.9543 49.6051 95.0004 48.4227 95.0004 47.5006C95.0004 46.4638 94.9589 45.3874 94.8685 44.114C94.0057 32.1497 88.6442 20.9562 79.8615 12.7855C71.0793 4.61481 59.5286 0.0732825 47.5336 0.0747074C35.5382 0.0761323 23.9886 4.6204 15.2084 12.7932C6.42819 20.966 1.06898 32.1608 0.209078 44.1252C-0.650823 56.0896 3.05239 67.936 10.5736 77.2803C18.0949 86.6245 28.876 92.774 40.7477 94.4903C52.6195 96.2072 64.7012 93.3643 74.5615 86.5335C84.4219 79.7027 91.3292 69.3909 93.894 57.6731C93.894 57.6731 94.0449 57.0931 94.1704 56.4059C94.4814 54.6441 94.8155 51.9907 94.8967 50.469ZM47.501 89.0637C39.4065 89.066 31.4874 86.7052 24.716 82.2703C17.9446 77.8355 12.6155 71.5196 9.38295 64.099C6.15041 56.6779 5.15518 48.4744 6.51937 40.4958C7.88357 32.5171 11.5478 25.1104 17.0624 19.185C22.5768 13.2596 29.7015 9.07332 37.5617 7.14019C45.422 5.20707 53.6756 5.61118 61.3094 8.30292C68.9431 10.9947 75.6247 15.857 80.5342 22.2927C85.4436 28.7285 88.3665 36.4578 88.9448 44.5315C89.0151 45.5135 89.0635 46.5007 89.0635 47.5006C89.0635 48.5004 89.0151 49.487 88.9448 50.469H52.6148C51.9614 51.6007 50.9528 52.485 49.7454 52.985C48.5381 53.4849 47.1996 53.5725 45.9374 53.2343C44.6752 52.896 43.5599 52.1507 42.7644 51.114C41.969 50.0773 41.5378 48.807 41.5378 47.5003C41.5378 46.1936 41.969 44.9233 42.7644 43.8866C43.5599 42.8499 44.6752 42.1046 45.9374 41.7663C47.1996 41.428 48.5381 41.5157 49.7454 42.0156C50.9528 42.5156 51.9614 43.3999 52.6148 44.5315H82.9935C82.254 35.626 78.1969 27.3229 71.6253 21.2672C65.0543 15.2116 56.4477 11.8451 47.5115 11.8347C38.5753 11.8242 29.9612 15.1706 23.3756 21.211C16.79 27.2513 12.7134 35.5449 11.9534 44.4488C11.1933 53.3525 13.8053 62.2168 19.2719 69.286C24.7385 76.3553 32.6609 81.1132 41.4696 82.6176C50.2783 84.1214 59.3305 82.2623 66.8334 77.4081C74.3363 72.554 79.7417 65.0585 81.9798 56.4071H88.0935C86.0627 65.6621 80.931 73.9449 73.5484 79.8842C66.1659 85.8234 56.9759 89.062 47.501 89.0637ZM47.501 29.6904C44.3735 29.6865 41.3001 30.5063 38.5899 32.0671C35.8798 33.6279 33.6284 35.8748 32.0621 38.5819C30.4959 41.2889 29.67 44.3606 29.6677 47.4881C29.6653 50.6156 30.4864 53.6886 32.0485 56.398C33.6106 59.1072 35.8586 61.358 38.5664 62.9229C41.2742 64.4878 44.3463 65.312 47.4738 65.3131C50.6013 65.3143 53.6738 64.4912 56.3826 62.9281C59.0914 61.3644 61.3405 59.1159 62.9042 56.4071H69.4868C67.4197 61.5159 63.6403 65.7468 58.7965 68.3749C53.9521 71.003 48.3447 71.8646 42.9351 70.8117C37.5255 69.7589 32.6505 66.8572 29.1454 62.6044C25.6404 58.351 23.7237 53.0117 23.7237 47.5006C23.7237 41.9894 25.6404 36.6499 29.1454 32.3969C32.6505 28.144 37.5255 25.2425 42.9351 24.1897C48.3447 23.1368 53.9521 23.9982 58.7965 26.6262C63.6403 29.2542 67.4197 33.4851 69.4868 38.594H62.9031C61.344 35.8879 59.0995 33.6401 56.3952 32.0771C53.6911 30.514 50.6231 29.6908 47.4998 29.6904H47.501Z" fill="#EFF2F3"/>
</g>
</svg>
